<svg class="tgwf-logo" aria-hidden="true" width="289" height="69" viewBox="0 0 289 69" fill="none" xmlns="http://www.w3.org/2000/svg">
<path d="M103.508 19.8404H95.7059V17.2442H106.437V30.0559H103.701V24.7523H103.637C102.703 27.5649 100.373 30.4185 96.3692 30.4185C90.0057 30.4185 85.9022 24.7172 85.9022 17.6067C85.9022 10.4962 89.8354 4.79492 96.5042 4.79492C102.269 4.79492 105.603 8.8706 106.202 13.1685H103.238C102.774 10.2097 100.772 7.39704 96.7038 7.39704C91.7022 7.39704 89.0018 11.654 89.0018 17.6067C89.0018 23.5594 91.802 27.8164 96.8036 27.8164C101.201 27.8164 103.502 24.6763 103.502 20.8871V19.8404H103.508ZM111.627 5.15162H118.759C124.324 5.15162 127.594 7.7128 127.594 12.3323C127.594 15.87 125.692 18.2148 122.293 19.1153L128.029 30.0501H124.729L119.229 19.5481H114.497V30.0501H111.632V5.15162H111.627ZM114.491 7.74789V16.9518H119.094C122.663 16.9518 124.495 15.3262 124.495 12.3323C124.495 9.3384 122.663 7.74789 119.094 7.74789H114.491ZM132.226 5.15162H145.458V7.74789H135.091V15.9753H145.158V18.5715H135.091V27.448H145.722V30.0442H132.22V5.15162H132.226ZM150.025 5.15162H163.257V7.74789H152.89V15.9753H162.958V18.5715H152.89V27.448H163.521V30.0442H150.019V5.15162H150.025ZM185.823 30.0501H179.923L170.689 5.2978V30.0501H167.824V5.15162H173.724L182.958 29.9039V5.15162H185.823V30.0501ZM219.15 5.15162L223.517 29.9039L228.918 5.15162H231.753L226.323 30.0501H220.723L216.355 5.2978L211.988 30.0501H206.387L200.957 5.15162H203.793L209.193 29.9039L213.561 5.15162H219.161H219.15ZM235.329 5.15162H248.561V7.74789H238.193V15.9753H248.261V18.5715H238.193V27.448H248.825V30.0442H235.323V5.15162H235.329ZM263.965 17.0629V17.1331C267.698 17.4605 269.195 19.8053 269.195 22.9396C269.195 27.4889 266.53 30.0501 260.965 30.0501H253.134V5.15162H259.732C265.297 5.15162 268.097 7.24501 268.097 11.7534C268.097 14.6771 266.295 16.4781 263.965 17.057V17.0629ZM255.998 7.75374V15.87H259.597C263.166 15.87 264.998 14.5017 264.998 11.7592C264.998 9.01679 263.63 7.75374 260.067 7.75374H255.998ZM255.998 18.4721V27.4597H261.299C264.869 27.4597 266.101 25.7639 266.101 22.9513C266.101 20.1387 264.27 18.478 260.701 18.478H255.998V18.4721ZM87.3111 42.8619H101.776V45.4581H90.1759V53.9019H101.576V56.4981H90.1759V67.7545H87.3111V42.856V42.8619ZM104.764 55.3111C104.764 48.2006 109.132 42.4993 115.495 42.4993C121.859 42.4993 126.226 48.2006 126.226 55.3111C126.226 62.4216 121.859 68.1229 115.495 68.1229C109.132 68.1229 104.764 62.4216 104.764 55.3111ZM123.127 55.3111C123.127 49.3584 120.062 45.1014 115.495 45.1014C110.928 45.1014 107.864 49.3584 107.864 55.3111C107.864 61.2638 110.928 65.5208 115.495 65.5208C120.062 65.5208 123.127 61.2638 123.127 55.3111ZM144.613 42.8619H147.477V57.8372C147.477 64.9068 144.313 68.1229 138.977 68.1229C133.641 68.1229 130.477 64.9126 130.477 57.8372V42.8619H133.341V58.3752C133.341 62.7081 134.973 65.5208 138.977 65.5208C142.981 65.5208 144.613 62.7081 144.613 58.3752V42.8619ZM171.112 67.7603H165.212L155.978 43.0081V67.7603H153.113V42.8619H159.013L168.247 67.6142V42.8619H171.112V67.7603ZM176.918 42.8619H183.551C190.883 42.8619 195.286 47.9842 195.286 55.3111C195.286 62.638 190.889 67.7603 183.551 67.7603H176.918V42.8619ZM179.782 45.4581V65.1582H183.217C188.882 65.1582 192.181 61.6965 192.181 55.3053C192.181 48.914 188.882 45.4523 183.217 45.4523H179.782V45.4581ZM204.08 42.8619H210.015L217.782 67.7603H214.747L212.416 60.2581H201.685L199.354 67.7603H196.319L204.086 42.8619H204.08ZM202.478 57.6559H211.612L207.045 43.0081L202.478 57.6559ZM216.068 42.8619H234.401V45.4581H226.67V67.7545H223.805V45.4581H216.073V42.8619H216.068ZM237.63 67.7603V42.8619H240.495V67.7603H237.63ZM244.991 55.3111C244.991 48.2006 249.359 42.4993 255.722 42.4993C262.086 42.4993 266.454 48.2006 266.454 55.3111C266.454 62.4216 262.086 68.1229 255.722 68.1229C249.359 68.1229 244.991 62.4216 244.991 55.3111ZM263.354 55.3111C263.354 49.3584 260.29 45.1014 255.722 45.1014C251.155 45.1014 248.091 49.3584 248.091 55.3111C248.091 61.2638 251.155 65.5208 255.722 65.5208C260.29 65.5208 263.354 61.2638 263.354 55.3111ZM288.955 67.7603H283.055L273.821 43.0081V67.7603H270.956V42.8619H276.856L286.09 67.6142V42.8619H288.955V67.7603Z" fill="white"/>
<path d="M0 36.3711V37.3301C0 54.469 13.9951 68.4093 31.2014 68.4093C48.4077 68.4093 62.4028 54.469 62.4028 37.3301V36.3711H0ZM30.2387 52.8434V66.3744C26.6518 65.5791 22.3018 60.5269 19.6073 52.8434H30.2387ZM18.9909 50.9254C17.8814 47.1889 17.1711 42.9261 17.0947 38.2891H30.2387V50.9254H18.9909ZM32.1583 66.3627V52.8434H42.6547C41.9737 54.7204 41.1753 56.5156 40.2595 58.1938C37.8115 62.6671 34.7354 65.7253 32.1583 66.3627ZM32.1583 50.9254V38.2891H45.3022C45.22 42.6396 44.5332 46.9433 43.3063 50.9254H32.1583ZM15.1692 38.2891C15.2455 42.815 15.9206 47.0953 17.0184 50.9254H5.31275C3.2363 47.0243 2.08177 42.7022 1.93725 38.2891H15.1751H15.1692ZM6.42227 52.8434H17.6172C19.5721 58.6733 22.4838 63.3045 25.5893 65.9534C17.535 64.3921 10.6549 59.5329 6.42227 52.8434ZM36.6785 65.9768C39.7781 63.3162 42.7016 58.6441 44.6917 52.8434H55.9864C51.7304 59.568 44.7915 64.4389 36.6844 65.9768H36.6785ZM57.0901 50.9254H45.2964C46.4352 47.0602 47.1397 42.7682 47.2277 38.2891H60.4597C60.318 42.7027 59.1633 47.0253 57.0842 50.9254H57.0901Z" fill="white"/>
<path d="M37.6355 36.3712L61.4108 27.676L59.8199 23.3606L37.9701 31.3541L53.6089 10.4611L49.9106 7.71864L33.6318 29.4653V0H29.0176V29.8396L12.7448 7.73034L9.02291 10.4494L24.3213 31.2254L2.54194 23.2553L0.95105 27.5708L25.0081 36.3712H37.6355Z" fill="#00FF00"/>
</svg>
