<svg aria-hidden="true" width="31" height="35" viewBox="0 0 31 35" fill="none" xmlns="http://www.w3.org/2000/svg">
<path d="M0 18.1077V18.5847C0 27.1097 6.93402 34.0437 15.459 34.0437C23.984 34.0437 30.918 27.1097 30.918 18.5847V18.1077H0ZM14.982 26.3011V33.0315C13.2049 32.636 11.0496 30.123 9.7146 26.3011H14.982ZM9.4092 25.3471C8.85948 23.4885 8.50755 21.3682 8.46974 19.0617H14.982V25.3471H9.4092ZM15.9331 33.0257V26.3011H21.1336C20.7962 27.2347 20.4007 28.1277 19.9469 28.9624C18.7341 31.1875 17.21 32.7087 15.9331 33.0257ZM15.9331 25.3471V19.0617H22.4454C22.4047 21.2257 22.0644 23.3664 21.4565 25.3471H15.9331ZM7.51573 19.0617C7.55354 21.3129 7.88802 23.442 8.43192 25.3471H2.63225C1.60345 23.4066 1.03143 21.2568 0.959826 19.0617H7.51864H7.51573ZM3.18197 26.3011H8.7286C9.69715 29.2009 11.1398 31.5045 12.6784 32.8221C8.68788 32.0455 5.27904 29.6285 3.18197 26.3011ZM18.1727 32.8337C19.7084 31.5103 21.1569 29.1864 22.1429 26.3011H27.739C25.6303 29.6459 22.1923 32.0688 18.1756 32.8337H18.1727ZM28.2858 25.3471H22.4425C23.0067 23.4245 23.3558 21.2896 23.3994 19.0617H29.9553C29.8851 21.257 29.313 23.4071 28.2829 25.3471H28.2858Z" fill="white"/>
<path d="M18.6484 18.0425L30.3963 13.7292L29.6102 11.5884L18.8137 15.5537L26.5413 5.18941L24.7138 3.82896L16.6701 14.6168V0H14.3901V14.8024L6.34929 3.83477L4.51023 5.1836L12.0695 15.4899L1.30783 11.5362L0.521729 13.6769L12.4089 18.0425H18.6484Z" fill="white"/>
</svg>
